<?xml version="1.0" ?><svg height="297.000000mm" version="1.0" viewBox="0 0 793 1122" width="210.000000mm" xmlns="http://www.w3.org/2000/svg">
  <g font-family="Helvetica" font-size="12pt" stroke-linecap="round">
    <text fill="#000000" font-family="helvetica" font-size="12pt" textLength="54" x="103.00" y="104.75"><tspan font-style="italic">Alcohol</tspan></text>
    <g stroke="#000000" stroke-linecap="butt" stroke-width="1.0">
      <line x1="213.00" x2="202.00" y1="103.00" y2="103.00"/>
    </g>
    <text fill="#000000" font-family="helvetica" font-size="12pt" x="188.30" y="106.00">R</text>
    <text fill="#000000" font-family="helvetica" font-size="12pt" x="214.30" y="106.00">OH</text>
    <text fill="#000000" font-family="helvetica" font-size="12pt" textLength="68" x="105.00" y="167.75"><tspan font-style="italic">Aldehyde</tspan></text>
    <g stroke="#000000" stroke-linecap="butt" stroke-width="1.0">
      <line x1="230.00" x2="230.00" y1="162.00" y2="170.00"/>
      <line x1="226.00" x2="226.00" y1="162.00" y2="170.00"/>
    </g>
    <g stroke="#000000" stroke-linecap="butt" stroke-width="1.0">
      <line x1="220.00" x2="213.00" y1="185.07" y2="189.11"/>
    </g>
    <g stroke="#000000" stroke-linecap="butt" stroke-width="1.0">
      <line x1="236.00" x2="243.00" y1="185.07" y2="189.11"/>
    </g>
    <text fill="#000000" font-family="helvetica" font-size="12pt" x="221.30" y="183.45">C</text>
    <text fill="#000000" font-family="helvetica" font-size="12pt" x="199.30" y="196.68">R</text>
    <text fill="#000000" font-family="helvetica" font-size="12pt" x="244.30" y="196.68">H</text>
    <text fill="#000000" font-family="helvetica" font-size="12pt" x="221.30" y="157.00">O</text>
    <text fill="#000000" font-family="helvetica" font-size="12pt" textLength="50" x="100.00" y="250.75"><tspan font-style="italic">Alkene</tspan></text>
    <g stroke="#000000" stroke-linecap="butt" stroke-width="1.0">
      <line x1="227.00" x2="237.00" y1="253.00" y2="253.00"/>
      <line x1="227.00" x2="237.00" y1="257.00" y2="257.00"/>
    </g>
    <g stroke="#000000" stroke-linecap="butt" stroke-width="1.0">
      <line x1="211.00" x2="204.00" y1="250.38" y2="246.34"/>
    </g>
    <g stroke="#000000" stroke-linecap="butt" stroke-width="1.0">
      <line x1="211.00" x2="204.00" y1="259.62" y2="263.66"/>
    </g>
    <g stroke="#000000" stroke-linecap="butt" stroke-width="1.0">
      <line x1="253.00" x2="261.00" y1="250.64" y2="246.02"/>
    </g>
    <g stroke="#000000" stroke-linecap="butt" stroke-width="1.0">
      <line x1="253.00" x2="261.00" y1="259.36" y2="263.98"/>
    </g>
    <text fill="#000000" font-family="helvetica" font-size="12pt" x="212.30" y="258.00">C</text>
    <text fill="#000000" font-family="helvetica" font-size="12pt" x="238.30" y="258.00">C</text>
    <text fill="#000000" font-family="helvetica" font-size="12pt" x="262.30" y="244.77">R</text>
    <text fill="#000000" font-family="helvetica" font-size="12pt" x="262.30" y="271.23">R</text>
    <text fill="#000000" font-family="helvetica" font-size="12pt" x="190.30" y="271.23">R</text>
    <text fill="#000000" font-family="helvetica" font-size="12pt" x="190.30" y="244.77">R</text>
    <text fill="#000000" font-family="helvetica" font-size="12pt" textLength="49" x="99.00" y="329.75"><tspan font-style="italic">Alkyne</tspan></text>
    <g stroke="#000000" stroke-linecap="butt" stroke-width="1.0">
      <line x1="229.00" x2="239.00" y1="332.00" y2="332.00"/>
      <line x1="230.25" x2="237.75" y1="327.50" y2="327.50"/>
      <line x1="230.25" x2="237.75" y1="336.50" y2="336.50"/>
    </g>
    <g stroke="#000000" stroke-linecap="butt" stroke-width="1.0">
      <line x1="213.00" x2="202.00" y1="332.00" y2="332.00"/>
    </g>
    <g stroke="#000000" stroke-linecap="butt" stroke-width="1.0">
      <line x1="255.00" x2="266.00" y1="332.00" y2="332.00"/>
    </g>
    <text fill="#000000" font-family="helvetica" font-size="12pt" x="214.30" y="335.00">C</text>
    <text fill="#000000" font-family="helvetica" font-size="12pt" x="240.30" y="335.00">C</text>
    <text fill="#000000" font-family="helvetica" font-size="12pt" x="267.30" y="335.00">R</text>
    <text fill="#000000" font-family="helvetica" font-size="12pt" x="188.30" y="335.00">R</text>
    <text fill="#000000" font-family="helvetica" font-size="12pt" textLength="47" x="100.00" y="415.75"><tspan font-style="italic">Amide</tspan></text>
    <g stroke="#000000" stroke-linecap="butt" stroke-width="1.0">
      <line x1="202.00" x2="202.00" y1="390.00" y2="398.00"/>
      <line x1="198.00" x2="198.00" y1="390.00" y2="398.00"/>
    </g>
    <g stroke="#000000" stroke-linecap="butt" stroke-width="1.0">
      <line x1="192.00" x2="185.00" y1="413.07" y2="417.11"/>
    </g>
    <g stroke="#000000" stroke-linecap="butt" stroke-width="1.0">
      <line x1="222.91" x2="222.91" y1="430.00" y2="438.00"/>
    </g>
    <g stroke="#000000" stroke-linecap="butt" stroke-width="1.0">
      <line x1="230.00" x2="238.00" y1="417.59" y2="412.97"/>
    </g>
    <g stroke="#000000" stroke-linecap="butt" stroke-width="1.0">
      <line x1="208.00" x2="215.00" y1="413.07" y2="417.11"/>
    </g>
    <text fill="#000000" font-family="helvetica" font-size="12pt" x="216.30" y="424.68">N</text>
    <text fill="#000000" font-family="helvetica" font-size="12pt" x="239.30" y="411.45">R</text>
    <text fill="#000000" font-family="helvetica" font-size="12pt" x="216.30" y="451.13">R</text>
    <text fill="#000000" font-family="helvetica" font-size="12pt" x="171.30" y="424.68">R</text>
    <text fill="#000000" font-family="helvetica" font-size="12pt" x="193.30" y="385.00">O</text>
    <text fill="#000000" font-family="helvetica" font-size="12pt" x="193.30" y="411.45">C</text>
    <text fill="#000000" font-family="helvetica" font-size="12pt" textLength="47" x="98.00" y="516.75"><tspan font-style="italic">Amine</tspan></text>
    <g stroke="#000000" stroke-linecap="butt" stroke-width="1.0">
      <line x1="188.00" x2="199.00" y1="516.00" y2="516.00"/>
    </g>
    <g stroke="#000000" stroke-linecap="butt" stroke-width="1.0">
      <line x1="214.00" x2="222.00" y1="511.64" y2="507.02"/>
    </g>
    <g stroke="#000000" stroke-linecap="butt" stroke-width="1.0">
      <line x1="214.00" x2="222.00" y1="520.36" y2="524.98"/>
    </g>
    <text fill="#000000" font-family="helvetica" font-size="12pt" x="200.30" y="519.00">N</text>
    <text fill="#000000" font-family="helvetica" font-size="12pt" x="223.30" y="505.77">R</text>
    <text fill="#000000" font-family="helvetica" font-size="12pt" x="223.30" y="532.23">R</text>
    <text fill="#000000" font-family="helvetica" font-size="12pt" x="174.30" y="519.00">R</text>
    <text fill="#000000" font-family="helvetica" font-size="12pt" textLength="64" x="96.00" y="606.75"><tspan font-style="italic">Aromatic</tspan></text>
    <g stroke="#000000" stroke-width="1.0">
      <line x1="218.00" x2="218.00" y1="596.00" y2="622.41"/>
    </g>
    <g stroke="#000000" stroke-width="1.0">
      <line x1="172.19" x2="195.10" y1="596.00" y2="582.77"/>
    </g>
    <g stroke="#000000" stroke-width="1.0">
      <line x1="195.10" x2="218.00" y1="582.77" y2="596.00"/>
      <line x1="194.96" x2="212.14" y1="589.62" y2="599.54"/>
    </g>
    <g stroke="#000000" stroke-width="1.0">
      <line x1="172.19" x2="195.10" y1="622.41" y2="635.64"/>
    </g>
    <g stroke="#000000" stroke-width="1.0">
      <line x1="172.19" x2="172.19" y1="596.00" y2="622.41"/>
      <line x1="178.19" x2="178.19" y1="599.30" y2="619.11"/>
    </g>
    <g stroke="#000000" stroke-width="1.0">
      <line x1="218.00" x2="195.10" y1="622.41" y2="635.64"/>
      <line x1="212.14" x2="194.96" y1="618.87" y2="628.79"/>
    </g>
    <text fill="#000000" font-family="helvetica" font-size="12pt" textLength="112" x="92.00" y="703.75"><tspan font-style="italic">Carboxylic Acid</tspan></text>
    <g stroke="#000000" stroke-linecap="butt" stroke-width="1.0">
      <line x1="262.00" x2="262.00" y1="679.00" y2="687.00"/>
      <line x1="258.00" x2="258.00" y1="679.00" y2="687.00"/>
    </g>
    <g stroke="#000000" stroke-linecap="butt" stroke-width="1.0">
      <line x1="252.00" x2="245.00" y1="702.07" y2="706.11"/>
    </g>
    <g stroke="#000000" stroke-linecap="butt" stroke-width="1.0">
      <line x1="268.00" x2="275.00" y1="702.07" y2="706.11"/>
    </g>
    <text fill="#000000" font-family="helvetica" font-size="12pt" x="253.30" y="700.45">C</text>
    <text fill="#000000" font-family="helvetica" font-size="12pt" x="253.30" y="674.00">O</text>
    <text fill="#000000" font-family="helvetica" font-size="12pt" x="276.30" y="713.68">OH</text>
    <text fill="#000000" font-family="helvetica" font-size="12pt" x="231.30" y="713.68">R</text>
    <text fill="#000000" font-family="helvetica" font-size="12pt" textLength="46" x="89.00" y="775.75"><tspan font-style="italic">Esther</tspan></text>
    <g stroke="#000000" stroke-linecap="butt" stroke-width="1.0">
      <line x1="181.00" x2="181.00" y1="763.00" y2="771.00"/>
      <line x1="177.00" x2="177.00" y1="763.00" y2="771.00"/>
    </g>
    <g stroke="#000000" stroke-linecap="butt" stroke-width="1.0">
      <line x1="171.00" x2="164.00" y1="786.07" y2="790.11"/>
    </g>
    <g stroke="#000000" stroke-linecap="butt" stroke-width="1.0">
      <line x1="187.00" x2="194.00" y1="786.07" y2="790.11"/>
    </g>
    <g stroke="#000000" stroke-linecap="butt" stroke-width="1.0">
      <line x1="210.00" x2="217.00" y1="790.01" y2="785.97"/>
    </g>
    <text fill="#000000" font-family="helvetica" font-size="12pt" x="172.30" y="784.45">C</text>
    <text fill="#000000" font-family="helvetica" font-size="12pt" x="172.30" y="758.00">O</text>
    <text fill="#000000" font-family="helvetica" font-size="12pt" x="150.30" y="797.68">R</text>
    <text fill="#000000" font-family="helvetica" font-size="12pt" x="195.30" y="797.68">O</text>
    <text fill="#000000" font-family="helvetica" font-size="12pt" x="218.30" y="784.45">R</text>
    <text fill="#000000" font-family="helvetica" font-size="12pt" textLength="38" x="91.00" y="856.75"><tspan font-style="italic">Ether</tspan></text>
    <g stroke="#000000" stroke-linecap="butt" stroke-width="1.0">
      <line x1="171.00" x2="179.00" y1="854.00" y2="854.00"/>
    </g>
    <g stroke="#000000" stroke-linecap="butt" stroke-width="1.0">
      <line x1="195.00" x2="206.00" y1="854.00" y2="854.00"/>
    </g>
    <text fill="#000000" font-family="helvetica" font-size="12pt" x="157.30" y="857.00">R</text>
    <text fill="#000000" font-family="helvetica" font-size="12pt" x="180.30" y="857.00">O</text>
    <text fill="#000000" font-family="helvetica" font-size="12pt" x="207.30" y="857.00">R</text>
    <text fill="#000000" font-family="helvetica" font-size="12pt" textLength="51" x="88.00" y="914.75"><tspan font-style="italic">Ketone</tspan></text>
    <g stroke="#000000" stroke-linecap="butt" stroke-width="1.0">
      <line x1="189.00" x2="189.00" y1="900.00" y2="908.00"/>
      <line x1="185.00" x2="185.00" y1="900.00" y2="908.00"/>
    </g>
    <g stroke="#000000" stroke-linecap="butt" stroke-width="1.0">
      <line x1="179.00" x2="172.00" y1="923.07" y2="927.11"/>
    </g>
    <g stroke="#000000" stroke-linecap="butt" stroke-width="1.0">
      <line x1="195.00" x2="202.00" y1="923.07" y2="927.11"/>
    </g>
    <text fill="#000000" font-family="helvetica" font-size="12pt" x="180.30" y="921.45">C</text>
    <text fill="#000000" font-family="helvetica" font-size="12pt" x="180.30" y="895.00">O</text>
    <text fill="#000000" font-family="helvetica" font-size="12pt" x="203.30" y="934.68">R</text>
    <text fill="#000000" font-family="helvetica" font-size="12pt" x="158.30" y="934.68">R</text>
    <text fill="#000000" font-family="helvetica" font-size="12pt" textLength="42" x="88.00" y="982.75"><tspan font-style="italic">Nitrile</tspan></text>
    <g stroke="#000000" stroke-linecap="butt" stroke-width="1.0">
      <line x1="172.00" x2="182.00" y1="979.00" y2="979.00"/>
    </g>
    <g stroke="#000000" stroke-linecap="butt" stroke-width="1.0">
      <line x1="198.00" x2="209.00" y1="979.00" y2="979.00"/>
      <line x1="199.38" x2="207.63" y1="974.50" y2="974.50"/>
      <line x1="199.38" x2="207.63" y1="983.50" y2="983.50"/>
    </g>
    <text fill="#000000" font-family="helvetica" font-size="12pt" x="158.30" y="982.00">R</text>
    <text fill="#000000" font-family="helvetica" font-size="12pt" x="183.30" y="982.00">C</text>
    <text fill="#000000" font-family="helvetica" font-size="12pt" x="210.30" y="982.00">N</text>
    <text fill="#000000" font-family="helvetica" font-size="12pt" textLength="36" x="88.00" y="1040.75"><tspan font-style="italic">Thiol</tspan></text>
    <g stroke="#000000" stroke-linecap="butt" stroke-width="1.0">
      <line x1="170.00" x2="181.00" y1="1039.00" y2="1039.00"/>
    </g>
    <text fill="#000000" font-family="helvetica" font-size="12pt" x="156.30" y="1042.00">R</text>
    <text fill="#000000" font-family="helvetica" font-size="12pt" x="182.30" y="1042.00">SH</text>
  </g>
</svg>